<svg id="Layer_1" data-name="Layer 1" xmlns="http://www.w3.org/2000/svg" viewBox="0 0 1249.16733 322.04077"><defs><style>.cls-1{fill:#004f84;}.cls-2{fill:#3fa9f5;}</style></defs><title>council_logo</title><path class="cls-1" d="M20.8893,16.01233H92.25984a86.07952,86.07952,0,0,1,20.42841,2.45688A52.46005,52.46005,0,0,1,130.65978,26.485a42.92073,42.92073,0,0,1,12.8,14.352q4.9095,8.79407,4.91377,21.20441,0,15.51465-8.79242,25.6-8.79407,10.08531-23.01419,14.48087v.51689a47.43917,47.43917,0,0,1,15.9033,4.78421,42.20077,42.20077,0,0,1,12.54153,9.56776,44.287,44.287,0,0,1,8.14532,13.44642,44.87682,44.87682,0,0,1,2.97377,16.4202q0,15.00072-5.94755,24.95417a47.18444,47.18444,0,0,1-15.64486,16.0322,66.8615,66.8615,0,0,1-22.23819,8.66287,125.76134,125.76134,0,0,1-25.47107,2.58577H20.8893ZM53.47125,90.48554H83.209q16.291,0,24.43662-6.33554a20.10521,20.10521,0,0,0,8.14532-16.67864q0-11.89049-8.40377-17.71308-8.4064-5.818-27.0224-5.81865H53.47125Zm0,80.67986H83.46742a123.314,123.314,0,0,0,13.31753-.776,40.06091,40.06091,0,0,0,13.05843-3.62022,25.75461,25.75461,0,0,0,9.82687-8.14532q3.87866-5.29716,3.87866-14.352,0-14.47889-9.43887-20.17-9.44216-5.68482-29.34973-5.68844H53.47125Z" transform="translate(-17.83267 -3.60035)"/><path class="cls-1" d="M210.43278,147.89211q1.55166,13.964,10.86065,21.7213,9.31,7.75831,22.49729,7.758,11.637,0,19.52352-4.78421a54.129,54.129,0,0,0,13.83442-12.024l22.23885,16.80819q-10.86065,13.44807-24.30773,19.13552A71.66258,71.66258,0,0,1,246.894,202.196a74.50452,74.50452,0,0,1-26.376-4.65466,63.26172,63.26172,0,0,1-21.46285-13.188,62.50357,62.50357,0,0,1-14.352-20.558,65.62256,65.62256,0,0,1-5.30044-26.764,65.62256,65.62256,0,0,1,5.30044-26.764,62.50078,62.50078,0,0,1,14.352-20.55731,63.2412,63.2412,0,0,1,21.46285-13.188,74.48986,74.48986,0,0,1,26.376-4.65466,60.35819,60.35819,0,0,1,23.66063,4.52511A50.80009,50.80009,0,0,1,288.91421,89.4511a60.36205,60.36205,0,0,1,11.89509,21.07551q4.26732,12.54548,4.26666,28.83218v8.53332ZM274.046,124.61948q-.26141-13.70355-8.534-21.5924-8.27816-7.88457-23.01419-7.88688-13.964,0-22.1093,8.01643-8.145,8.01774-9.95576,21.46285Z" transform="translate(-17.83267 -3.60035)"/><path class="cls-1" d="M334.03571,74.97023h29.47862V94.88175h.51755A43.50728,43.50728,0,0,1,377.47831,78.72q9.04857-6.84882,24.56552-6.85243,12.41231,0,21.07551,4.13711a39.89148,39.89148,0,0,1,14.09287,10.86065,41.14786,41.14786,0,0,1,7.75732,15.51531,71.4568,71.4568,0,0,1,2.32733,18.36019v78.35187H416.26625V136.25612q0-5.16991-.51689-11.50775a41.52016,41.52016,0,0,0-2.71533-11.89509,22.298,22.298,0,0,0-6.85244-9.30866q-4.655-3.74549-12.67109-3.74977a29.663,29.663,0,0,0-13.05843,2.58577,25.11956,25.11956,0,0,0-8.79177,6.982,27.8137,27.8137,0,0,0-5.04266,10.08465,45.01921,45.01921,0,0,0-1.55133,11.89509v67.75033H334.03571Z" transform="translate(-17.83267 -3.60035)"/><path class="cls-1" d="M724.49759,185.64627q-33.87812,18.10305-75.7661,18.10108a107.052,107.052,0,0,1-38.91683-6.85243,87.24514,87.24514,0,0,1-50.55414-49.51969q-7.24241-17.58222-7.24043-39.047,0-21.9758,7.24043-39.95193a89.62934,89.62934,0,0,1,20.04041-30.64262,87.88982,87.88982,0,0,1,30.51372-19.52352,107.052,107.052,0,0,1,38.91683-6.85243,147.89006,147.89006,0,0,1,39.30615,5.04266A80.94348,80.94348,0,0,1,720.878,34.37186L696.82874,58.67959a60.3088,60.3088,0,0,0-21.3333-13.188A75.55822,75.55822,0,0,0,648.99059,40.837a63.4339,63.4339,0,0,0-25.72951,5.04266,58.83018,58.83018,0,0,0-19.782,13.96332,63.35663,63.35663,0,0,0-12.8,20.81641,71.37179,71.37179,0,0,0-4.52576,25.6,78.67764,78.67764,0,0,0,4.52576,27.152,63.66569,63.66569,0,0,0,12.8,21.46285,59.471,59.471,0,0,0,19.782,14.22242,62.02133,62.02133,0,0,0,25.72951,5.17155,112.80028,112.80028,0,0,0,23.40218-2.32733,66.44093,66.44093,0,0,0,19.52352-7.24043V121.51616H654.42125V92.03753h70.07634Z" transform="translate(-17.83267 -3.60035)"/><path class="cls-1" d="M753.97753,137.03146a65.62256,65.62256,0,0,1,5.30044-26.764,62.49105,62.49105,0,0,1,14.352-20.55731,63.23827,63.23827,0,0,1,21.46219-13.188,77.058,77.058,0,0,1,52.75191,0,63.28225,63.28225,0,0,1,21.46351,13.188,62.62755,62.62755,0,0,1,14.352,20.55731,65.68759,65.68759,0,0,1,5.30044,26.764,65.68759,65.68759,0,0,1-5.30044,26.764,62.63035,62.63035,0,0,1-14.352,20.558,63.3028,63.3028,0,0,1-21.46351,13.188,77.058,77.058,0,0,1-52.75191,0,63.2588,63.2588,0,0,1-21.46219-13.188,62.49384,62.49384,0,0,1-14.352-20.558A65.62256,65.62256,0,0,1,753.97753,137.03146Zm31.03061,0a40.30715,40.30715,0,0,0,2.45557,13.964,34.95879,34.95879,0,0,0,7.24175,11.89509,36.67728,36.67728,0,0,0,53.52659,0,35.05879,35.05879,0,0,0,7.24043-11.89509,40.91139,40.91139,0,0,0,0-27.92795,35.13827,35.13827,0,0,0-7.24043-11.89443,36.67728,36.67728,0,0,0-53.52659,0,35.0378,35.0378,0,0,0-7.24175,11.89443A40.33964,40.33964,0,0,0,785.00814,137.03146Z" transform="translate(-17.83267 -3.60035)"/><path class="cls-1" d="M1031.18022,199.09269h-29.47994V179.18117h-.51689a43.54553,43.54553,0,0,1-13.44577,16.16175q-9.05547,6.84882-24.56618,6.85309-12.4133,0-21.07551-4.00821a37.91489,37.91489,0,0,1-14.09287-10.86065,42.28705,42.28705,0,0,1-7.75732-15.64486,71.41118,71.41118,0,0,1-2.328-18.35953V74.97023h31.03061v62.83722q0,5.17582.51821,11.50709a41.18871,41.18871,0,0,0,2.71467,11.89509,22.6709,22.6709,0,0,0,6.72354,9.30932q4.51985,3.75141,12.8,3.74911a29.61323,29.61323,0,0,0,13.05908-2.58577,25.05491,25.05491,0,0,0,8.79111-6.982,27.7252,27.7252,0,0,0,5.04266-10.08465,45.0214,45.0214,0,0,0,1.552-11.89509V74.97023h31.03061Z" transform="translate(-17.83267 -3.60035)"/><path class="cls-1" d="M1066.86287,3.60035h31.03061V199.09269h-31.03061Z" transform="translate(-17.83267 -3.60035)"/><path class="cls-1" d="M1231.83951,180.47406h-.51689a39.9076,39.9076,0,0,1-18.10042,16.54975A58.69208,58.69208,0,0,1,1188.656,202.196a62.29286,62.29286,0,0,1-25.73017-5.04266,57.61091,57.61091,0,0,1-19.26442-13.83442,59.08041,59.08041,0,0,1-12.15419-20.68686,77.34928,77.34928,0,0,1-4.13645-25.60062,73.22769,73.22769,0,0,1,4.39555-25.6A63.6217,63.6217,0,0,1,1144.04943,90.744a56.644,56.644,0,0,1,19.00663-13.83442,58.15761,58.15761,0,0,1,24.30707-5.042,60.06386,60.06386,0,0,1,15.51465,1.80978,53.67479,53.67479,0,0,1,11.89509,4.65466,47.89247,47.89247,0,0,1,8.79242,6.0771,44.44052,44.44052,0,0,1,5.94754,6.33489h.776V3.60035h31.03061V199.09269h-29.47994Zm-73.43811-43.4426a40.30714,40.30714,0,0,0,2.45557,13.964,34.95879,34.95879,0,0,0,7.24175,11.89509,36.67728,36.67728,0,0,0,53.52659,0,35.05879,35.05879,0,0,0,7.24043-11.89509,40.91139,40.91139,0,0,0,0-27.92795,35.13828,35.13828,0,0,0-7.24043-11.89443,36.67728,36.67728,0,0,0-53.52659,0,35.0378,35.0378,0,0,0-7.24175,11.89443A40.33963,40.33963,0,0,0,1158.4014,137.03146Z" transform="translate(-17.83267 -3.60035)"/><path class="cls-2" d="M17.83267,324.53631v-76.6H43.71672q13.52008,0,21.09656,5.261,7.57582,5.26164,7.57582,15.73035a16.62014,16.62014,0,0,1-2.81463,9.49608,16.99572,16.99572,0,0,1-8.18083,6.28688q6.89123,1.47373,10.33784,6.31318a18.83582,18.83582,0,0,1,3.44595,11.2059q0,10.99678-7.26016,16.651Q60.6571,324.537,47.3468,324.53631Zm15.36208-44.50795H44.24282q6.15535,0,9.46978-2.52527a8.69064,8.69064,0,0,0,3.31442-7.36538q0-5.31294-3.34073-7.83887-3.342-2.52527-9.96957-2.52527h-10.522Zm0,10.62719v22.04353H47.3468q6.10209,0,9.31195-2.65022,3.20789-2.65154,3.2092-7.84676,0-5.61676-2.73571-8.58067-2.73637-2.96522-8.628-2.96588Z" transform="translate(-17.83267 -3.60035)"/><path class="cls-2" d="M134.04786,290.866H102.32411v21.83309h37.09v11.83722H86.962v-76.6h52.34682v11.83722H102.32411v19.25521h31.72375Z" transform="translate(-17.83267 -3.60035)"/><path class="cls-2" d="M164.19331,293.91737v30.61894H148.83123v-76.6H177.714q13.09986,0,20.49154,5.97122,7.39037,5.97188,7.39169,16.651a16.86419,16.86419,0,0,1-3.104,10.20631,21.70137,21.70137,0,0,1-9.10151,6.89189q6.78667,2.00049,9.75913,6.68145a21.19456,21.19456,0,0,1,2.97246,11.57417v5.62926a27.84149,27.84149,0,0,0,.86806,6.70776,9.21772,9.21772,0,0,0,2.97246,5.18207v1.10481H194.12833q-2.10505-1.68286-2.73571-5.62926a47.36564,47.36564,0,0,1-.63132-7.4706v-5.41882q0-5.73316-3.13029-8.91737-3.13094-3.18224-8.81215-3.1829Zm0-11.83722H177.451q6.471,0,9.65391-2.73571,3.18224-2.7344,3.1829-8.10192a11.15172,11.15172,0,0,0-3.1829-8.365q-3.18421-3.10332-9.39086-3.104H164.19331Z" transform="translate(-17.83267 -3.60035)"/><path class="cls-2" d="M243.94987,292.54951h-8.5228v31.9868H220.065v-76.6h15.36208v31.30287h6.68145l20.30741-31.30287h18.78172l-25.77883,35.66949,27.83062,40.93048H264.52033Z" transform="translate(-17.83267 -3.60035)"/><path class="cls-2" d="M336.75367,290.866H305.02992v21.83309h37.09v11.83722h-52.452v-76.6h52.34682v11.83722H305.02992v19.25521h31.72375Z" transform="translate(-17.83267 -3.60035)"/><path class="cls-2" d="M366.89847,312.69909h34.09119v11.83722H351.537v-76.6h15.36142Z" transform="translate(-17.83267 -3.60035)"/><path class="cls-2" d="M456.91395,290.866H425.1902v21.83309h37.09v11.83722h-52.452v-76.6h52.34682v11.83722H425.1902v19.25521h31.72375Z" transform="translate(-17.83267 -3.60035)"/><path class="cls-2" d="M498.37052,283.23757h.31566l16.72994-35.30122h16.83516l-26.30493,49.66371v26.93625H490.63687v-27.7254l-25.83144-48.87457h16.83516Z" transform="translate(-17.83267 -3.60035)"/><path class="cls-2" d="M624.31854,298.44182l.10522.31566q.20912,12.364-7.54952,19.62348-7.76127,7.26016-21.54374,7.26016-13.83771,0-22.46441-8.89107-8.62933-8.88975-8.628-22.88529V278.66051q0-13.9403,8.41758-22.88529,8.41626-8.943,21.8857-8.94368,14.20466,0,22.20136,7.28647,7.996,7.28778,7.78626,19.86022l-.10522.31566h-14.9412q0-7.57582-3.63008-11.60048t-11.31112-4.02465a12.81792,12.81792,0,0,0-10.94285,5.59769q-4.05227,5.599-4.051,14.27043v15.29369q0,8.77927,4.2614,14.37565a13.719,13.719,0,0,0,11.52156,5.59769q7.20689,0,10.6535-3.86683,3.44463-3.86683,3.44595-11.49526Z" transform="translate(-17.83267 -3.60035)"/><path class="cls-2" d="M651.675,324.53631H636.31293v-76.6H651.675Z" transform="translate(-17.83267 -3.60035)"/><path class="cls-2" d="M719.91,259.77357H698.23474v64.76274H682.87266V259.77357h-21.57V247.93635H719.91Z" transform="translate(-17.83267 -3.60035)"/><path class="cls-2" d="M756.15821,283.23757h.31566l16.72994-35.30122H790.039L763.734,297.60006v26.93625H748.42455v-27.7254l-25.83144-48.87457h16.83516Z" transform="translate(-17.83267 -3.60035)"/><path class="cls-2" d="M882.10622,298.44182l.10522.31566q.20912,12.364-7.54952,19.62348-7.76127,7.26016-21.54374,7.26016-13.83771,0-22.46441-8.89107-8.62933-8.88975-8.628-22.88529V278.66051q0-13.9403,8.41758-22.88529,8.41626-8.943,21.8857-8.94368,14.20466,0,22.20136,7.28647,7.996,7.28778,7.78626,19.86022l-.10522.31566h-14.9412q0-7.57582-3.63008-11.60048T852.329,258.66876a12.81792,12.81792,0,0,0-10.94285,5.59769q-4.05227,5.599-4.051,14.27043v15.29369q0,8.77927,4.2614,14.37565a13.719,13.719,0,0,0,11.52156,5.59769q7.20689,0,10.6535-3.86683,3.44463-3.86683,3.44595-11.49526Z" transform="translate(-17.83267 -3.60035)"/><path class="cls-2" d="M954.76045,293.12822q0,14.1001-8.91737,23.30617-8.91737,9.20738-23.17465,9.20673-14.15337,0-22.99051-9.20673-8.83846-9.20541-8.83846-23.30617V279.34444q0-14.04683,8.81215-23.27987,8.81084-9.233,22.96421-9.233,14.256,0,23.201,9.233,8.943,9.233,8.94368,23.27987Zm-15.36208-13.84955q0-8.96078-4.47184-14.70577a14.7396,14.7396,0,0,0-12.31071-5.74631q-7.84019,0-12.15288,5.72-4.31467,5.71935-4.314,14.73208V293.194q0,9.1186,4.36662,14.86492,4.366,5.745,12.15288,5.745,7.89148,0,12.31071-5.745,4.41923-5.747,4.41923-14.86492Z" transform="translate(-17.83267 -3.60035)"/><path class="cls-2" d="M1027.36206,247.93635v50.82113q0,12.89073-8.5228,19.88653-8.5228,6.99777-22.30658,6.99711-13.73117,0-22.17506-6.99711-8.44388-6.9958-8.44388-19.88653V247.93635h15.41469V298.7167q0,7.5699,4.051,11.32822,4.05026,3.76029,11.15329,3.759,7.20689,0,11.31112-3.73267,4.10357-3.7307,4.10357-11.35452V247.93635Z" transform="translate(-17.83267 -3.60035)"/><path class="cls-2" d="M1102.69939,324.53631h-15.30947l-30.9346-52.34682-.31566.05261v52.29421h-15.36208v-76.6h15.36208l30.9346,52.29421.31566-.05261v-52.2416h15.30947Z" transform="translate(-17.83267 -3.60035)"/><path class="cls-2" d="M1174.88012,298.44182l.10522.31566q.20912,12.364-7.54952,19.62348-7.76127,7.26016-21.54374,7.26016-13.83771,0-22.46441-8.89107-8.62933-8.88975-8.628-22.88529V278.66051q0-13.9403,8.41758-22.88529,8.41626-8.943,21.8857-8.94368,14.20466,0,22.20136,7.28647,7.996,7.28778,7.78626,19.86022l-.10522.31566h-14.9412q0-7.57582-3.63008-11.60048t-11.31112-4.02465a12.81793,12.81793,0,0,0-10.94285,5.59769q-4.05227,5.599-4.051,14.27043v15.29369q0,8.77927,4.2614,14.37565a13.719,13.719,0,0,0,11.52156,5.59769q7.20689,0,10.6535-3.86683,3.44463-3.86683,3.44595-11.49526Z" transform="translate(-17.83267 -3.60035)"/><path class="cls-2" d="M1202.23726,324.53631h-15.36208v-76.6h15.36208Z" transform="translate(-17.83267 -3.60035)"/><path class="cls-2" d="M1232.90881,312.69909H1267v11.83722h-49.45327v-76.6h15.36208Z" transform="translate(-17.83267 -3.60035)"/></svg>